<?xml version="1.0" encoding="UTF-8" standalone="no"?>
<!DOCTYPE svg PUBLIC "-//W3C//DTD SVG 1.1//EN" "http://www.w3.org/Graphics/SVG/1.1/DTD/svg11.dtd">
<svg width="100%" height="100%" viewBox="0 0 1202 1202" version="1.1" xmlns="http://www.w3.org/2000/svg" xmlns:xlink="http://www.w3.org/1999/xlink" xml:space="preserve">
    <g>
        <path d="M646.5,162.5C773.278,157.843 880.444,200.843 968,291.5C1041.05,375.71 1073.05,473.71 1064,585.5C1058.36,642.076 1038.36,692.743 1004,737.5C955.628,794.176 895.128,813.343 822.5,795C794.495,787.332 766.495,779.666 738.5,772C673.007,758.494 627.173,782.327 601,843.5C591.844,869.079 588.511,895.412 591,922.5C593.386,942.203 596.053,961.869 599,981.5C600.466,994.469 600.799,1007.47 600,1020.5C594.162,1053.85 574.328,1069.01 540.5,1066C524.12,1063.88 509.12,1058.21 495.5,1049C475.549,1035.06 457.382,1018.89 441,1000.5C385,935.167 329,869.833 273,804.5C246.069,773.966 222.069,741.299 201,706.5C145.576,608.242 139.909,507.242 184,403.5C220.058,330.776 274.224,275.942 346.5,239C425.156,200.25 508.156,176.25 595.5,167C612.625,165.159 629.625,163.659 646.5,162.5Z" fill="black"/>
    </g>
</svg>